<?xml version="1.0" standalone="no"?><!DOCTYPE svg PUBLIC "-//W3C//DTD SVG 1.1//EN" "http://www.w3.org/Graphics/SVG/1.1/DTD/svg11.dtd"><svg t="1570351210557" class="icon" viewBox="0 0 1024 1024" version="1.1" xmlns="http://www.w3.org/2000/svg" p-id="1462" xmlns:xlink="http://www.w3.org/1999/xlink" width="200" height="200"><defs><style type="text/css"></style></defs><path d="M512 512m-512 0a512 512 0 1 0 1024 0 512 512 0 1 0-1024 0Z" fill="#8C0000" p-id="1463" data-spm-anchor-id="a313x.7781069.0.i3" class="selected"></path><path d="M557.866667 577.706667a19.413333 19.413333 0 0 0 9.813333 2.986666 18.133333 18.133333 0 0 0 10.026667-2.986666c21.333333-14.08 126.72-88.746667 167.68-163.413334a106.666667 106.666667 0 0 0-89.173334-164.053333c-42.666667 0-72.533333 33.066667-88.533333 51.626667-15.146667-17.28-46.72-51.626667-88.533333-51.626667a106.666667 106.666667 0 0 0-89.6 164.053333c44.586667 82.133333 167.04 162.773333 168.32 163.413334z" fill="#FFFFFF" p-id="1464"></path><path d="M746.666667 568.746667a42.666667 42.666667 0 0 0-20.053334-5.546667 62.506667 62.506667 0 0 0-42.666666 22.613333l-14.506667 14.293334c1.493333 0 2.346667 0 3.2 1.066666 15.573333 19.84 13.653333 51.413333-35.2 89.813334s-174.293333-14.506667-202.026667-30.72 0-45.44 17.493334-34.56a262.186667 262.186667 0 0 0 123.093333 34.133333c66.133333 4.266667 61.226667-28.16 61.226667-28.16l-5.973334-2.773333a60.586667 60.586667 0 0 0-9.6-1.493334 359.893333 359.893333 0 0 1-97.706666-15.36A364.8 364.8 0 0 1 490.666667 588.8l-1.706667-1.28a157.44 157.44 0 0 0-108.8-37.333333 153.173333 153.173333 0 0 0-45.653333 8.746666h-1.493334a139.733333 139.733333 0 0 1-41.386666 8.106667 35.626667 35.626667 0 0 0-35.626667 36.266667v82.56a35.626667 35.626667 0 0 0 35.413333 35.413333 605.866667 605.866667 0 0 1 88.746667 4.693333 582.826667 582.826667 0 0 1 79.573333 42.666667 42.666667 42.666667 0 0 0 19.84 5.12h149.333334a58.666667 58.666667 0 0 0 42.666666-26.453333c7.893333-13.013333 29.44-43.946667 87.466667-117.973334l3.2-4.266666a19.84 19.84 0 0 0 0-2.133334 40.96 40.96 0 0 0-15.573333-54.186666z" fill="#FFFFFF" p-id="1465"></path></svg>